<svg xmlns="http://www.w3.org/2000/svg" viewBox="0 0 60 60">
  <defs>
    <style>
      .cls-1 {
        fill: #6da2fe;
      }
    </style>
  </defs>
  <path id="Path_2405" data-name="Path 2405" class="cls-1" d="M82.159,0H26.04A1.856,1.856,0,0,0,24.1,1.758V58.242A1.856,1.856,0,0,0,26.04,60H82.159A1.856,1.856,0,0,0,84.1,58.242V1.758A1.856,1.856,0,0,0,82.159,0Zm-1.94,56.484H27.981V43.055H80.219ZM54.1,30.7c5.79,0,10.612,3.83,11.539,8.84H42.561C43.488,34.528,48.31,30.7,54.1,30.7ZM47.272,21c0-3.411,3.063-6.185,6.828-6.185S60.928,17.587,60.928,21s-3.063,6.185-6.828,6.185S47.272,24.408,47.272,21ZM80.219,39.539H69.56A14.331,14.331,0,0,0,60.8,28.557,9.378,9.378,0,0,0,64.809,21c0-5.349-4.8-9.7-10.709-9.7S43.391,15.649,43.391,21A9.378,9.378,0,0,0,47.4,28.557,14.331,14.331,0,0,0,38.64,39.539H27.981V3.516H80.219Z" transform="translate(-24.1 0)"/>
</svg>
