<svg xmlns="http://www.w3.org/2000/svg" viewBox="2080.001 6594.272 60 43.972">
  <defs>
    <style>
      .cls-1 {
        fill: #515365;
        fill-rule: evenodd;
      }
    </style>
  </defs>
  <path id="Path_756" data-name="Path 756" class="cls-1" d="M522.011,409.785l-.029-.022a29.688,29.688,0,0,1-2.08,2.823l-3.1-4.643c.47-.658.916-1.333,1.331-2.03.237-.393.451-.8.666-1.208a25.225,25.225,0,0,0,1.173-2.573,24.271,24.271,0,0,0-3.225-23.7l2.583-5.168a29.884,29.884,0,0,1,2.677,36.517Zm-42.946,7.455A29.915,29.915,0,0,1,467.106,395h-.017c-.035-.588-.089-1.169-.089-1.766h0a30.059,30.059,0,0,1,.552-5.668l4.9,2.94c-.035.317-.031.645-.056.963h.008c-.042.587-.11,1.167-.11,1.765a24.641,24.641,0,0,0,9.506,19.45Z" transform="translate(1613.001 6221.004)"/>
</svg>
