<svg xmlns="http://www.w3.org/2000/svg" viewBox="2060.001 18.564 40 28.133">
  <defs>
    <style>
      .cls-1 {
        fill: #fff;
        fill-rule: evenodd;
      }
    </style>
  </defs>
  <path id="Path_756" data-name="Path 756" class="cls-1" d="M503.674,396.631l-.019-.014a19.06,19.06,0,0,1-1.387,1.806l-2.064-2.971c.313-.421.611-.853.887-1.3.158-.251.3-.512.444-.773a15.837,15.837,0,0,0,.782-1.646,15.063,15.063,0,0,0,1.153-5.694,15.3,15.3,0,0,0-3.3-9.466l1.722-3.306a18.519,18.519,0,0,1,1.785,23.363Zm-28.631,4.77a18.943,18.943,0,0,1-7.973-14.23h-.011c-.023-.376-.059-.748-.059-1.13h0a18.481,18.481,0,0,1,.368-3.626l3.267,1.881c-.023.2-.021.413-.037.616h.005c-.028.376-.073.747-.073,1.129a15.549,15.549,0,0,0,6.337,12.444Z" transform="translate(1593.001 -354.704)"/>
</svg>
