<svg xmlns="http://www.w3.org/2000/svg" viewBox="3016 -6806 20 20">
  <defs>
    <style>
      .cls-1 {
        fill: #acafc2;
      }
    </style>
  </defs>
  <path id="Path_2405" data-name="Path 2405" class="cls-1" d="M43.453,0H24.747A.619.619,0,0,0,24.1.586V19.414a.619.619,0,0,0,.647.586H43.453a.619.619,0,0,0,.647-.586V.586A.619.619,0,0,0,43.453,0Zm-.647,18.828H25.394V14.352H42.806Zm-8.706-8.6a3.814,3.814,0,0,1,3.846,2.947H30.254A3.814,3.814,0,0,1,34.1,10.233ZM31.824,7a2.287,2.287,0,0,1,4.552,0,2.287,2.287,0,0,1-4.552,0Zm10.982,6.18H39.253a4.777,4.777,0,0,0-2.92-3.661A3.126,3.126,0,0,0,37.67,7,3.587,3.587,0,0,0,30.53,7a3.126,3.126,0,0,0,1.336,2.52,4.777,4.777,0,0,0-2.92,3.661H25.394V1.172H42.806Z" transform="translate(2991.9 -6806)"/>
</svg>
