<svg xmlns="http://www.w3.org/2000/svg" viewBox="2841 1587 35 35">
  <defs>
    <style>
      .cls-1 {
        fill: #6da2fe;
      }
    </style>
  </defs>
  <g id="teamwork" transform="translate(2841 1587)">
    <g id="Group_228" data-name="Group 228">
      <path id="Path_865" data-name="Path 865" class="cls-1" d="M29.711,26.527a5.736,5.736,0,0,0-2.856-9.563,9.457,9.457,0,0,0-5.211-7.253,5.742,5.742,0,1,0-8.289,0,9.457,9.457,0,0,0-5.211,7.253,5.736,5.736,0,0,0-2.856,9.563A9.445,9.445,0,0,0,0,35H2.734a6.7,6.7,0,0,1,13.4,0h2.734a6.7,6.7,0,1,1,13.4,0H35A9.445,9.445,0,0,0,29.711,26.527ZM17.5,2.734a3.008,3.008,0,1,1-3.008,3.008A3.011,3.011,0,0,1,17.5,2.734ZM9.434,25.566a3.008,3.008,0,1,1,3.008-3.008A3.011,3.011,0,0,1,9.434,25.566Zm11.989.961A9.5,9.5,0,0,0,17.5,30.113a9.5,9.5,0,0,0-3.922-3.586A5.737,5.737,0,0,0,10.9,17.008a6.7,6.7,0,0,1,13.192,0,5.737,5.737,0,0,0-2.674,9.519Zm4.144-.961a3.008,3.008,0,1,1,3.008-3.008A3.011,3.011,0,0,1,25.566,25.566Z"/>
    </g>
  </g>
</svg>
