<svg xmlns="http://www.w3.org/2000/svg" viewBox="2584.609 535.726 12.716 9.264">
  <defs>
    <style>
      .cls-1 {
        fill: #fff;
        fill-rule: evenodd;
      }
    </style>
  </defs>
  <path id="Path_822" data-name="Path 822" class="cls-1" d="M220.513,534.077s2.526,2.211,4.536.019a1.037,1.037,0,0,1-.552-.167.979.979,0,0,1-.275-.472s.625-.352.39-.617c0,0-1.382-.029-1.46-.868l.812-.528a.774.774,0,0,1-.635,0s-.82-.592-.663-1.2l.685-.07s-1.188-.849-.856-1.5c0,0,.114-.561,4.044,2.064,0,0,.692-2.48,1.972-3.027,0,0,.212.1.212.212,0,0,.182-.393.421-.429,0,0,.289.257.1.4,0,0,.486-.335.725-.165,0,0-.02.3-.72.669,0,0,1.816.1,2.45,2.538a1.856,1.856,0,0,0,1.527-.194s.062.36-1.086.869c0,0,.107.173,1.069.041,0,0-.008.72-1.53.715,0,0-1.286,3.749-4.41,4.265C223.474,537.261,220.806,535.351,220.513,534.077Z" transform="translate(2364.096 8.233)"/>
</svg>
